<svg width="24" height="24" stroke="none" fill="currentColor" xmlns:xlink="http://www.w3.org/1999/xlink" xmlns="http://www.w3.org/2000/svg" viewBox="0 0 24 24" preserveAspectRatio="xMidYMid meet" data-attributes-set=",xmlns:xlink,xmlns,viewBox,preserveAspectRatio,xmlns:xlink,xmlns,viewBox,preserveAspectRatio"><path xmlns="http://www.w3.org/2000/svg" d="M0 0h24v24H0z" fill="none"></path><circle xmlns="http://www.w3.org/2000/svg" cx="12" cy="12" r="3.2"></circle><path xmlns="http://www.w3.org/2000/svg" d="M9 2L7.17 4H4c-1.1 0-2 .9-2 2v12c0 1.1.9 2 2 2h16c1.1 0 2-.9 2-2V6c0-1.1-.9-2-2-2h-3.17L15 2H9zm3 15c-2.76 0-5-2.24-5-5s2.24-5 5-5 5 2.24 5 5-2.24 5-5 5z"></path></svg>